<svg width="40" height="40" viewBox="0 0 40 40" fill="none" xmlns="http://www.w3.org/2000/svg">
<g clip-path="url(#clip0_19_830)">
<path fill-rule="evenodd" clip-rule="evenodd" d="M20 40C31.0457 40 40 31.0457 40 20C40 8.95431 31.0457 0 20 0C8.95431 0 0 8.95431 0 20C0 31.0457 8.95431 40 20 40Z" fill="black"/>
<path fill-rule="evenodd" clip-rule="evenodd" d="M23.6156 13.2414V14.7799H29.7695V13.2414H23.6156ZM8.07715 12.4407L15.1786 12.5193C15.1786 12.5193 19.0783 12.3136 19.6158 15.4099C20.1533 18.5061 17.6541 19.2376 17.6541 19.2376C17.6541 19.2376 20.7405 19.9386 20.3108 23.5552C19.881 27.1717 15.6665 27.209 15.6665 27.209H8.07715V12.4407ZM11.3079 18.3184L14.2466 18.3367C14.4347 18.3367 14.9292 18.3203 15.3359 18.2243C15.51 18.1832 15.8488 18.0663 16.0827 17.8554C16.1798 17.7678 16.3587 17.5211 16.462 17.2287C16.5623 16.9445 16.5884 16.6151 16.5884 16.4887C16.5884 16.2573 16.5463 16.0431 16.462 15.8461C16.3777 15.6491 16.2512 15.4787 16.0827 15.3349C15.9141 15.191 15.6997 15.0784 15.4395 14.9971C15.1793 14.9158 14.8696 14.8752 14.5105 14.8752L11.3079 14.8569V18.3184ZM11.3079 24.5289L14.5186 24.5491C14.7241 24.5491 15.2643 24.531 15.7087 24.4249C15.8989 24.3795 16.269 24.2502 16.5246 24.0171C16.6307 23.9203 16.8262 23.6476 16.939 23.3245C17.0487 23.0104 17.0772 22.6463 17.0772 22.5066C17.0772 22.2508 17.0311 22.0141 16.939 21.7964C16.8469 21.5786 16.7088 21.3903 16.5246 21.2313C16.3404 21.0723 16.1062 20.9479 15.8219 20.858C15.5376 20.7682 15.1993 20.7233 14.8069 20.7233L11.3079 20.703V24.5289ZM24.2942 22.5618C24.2988 22.6478 24.2942 24.769 26.0321 25.2561C28.0497 25.8217 28.9489 24.1458 29.0187 23.9516H31.6614C31.5931 24.2699 30.5188 28.6032 24.6739 27.1909C21.0861 26.324 21.2706 22.0758 21.2706 21.712C21.2706 21.3769 21.285 19.5947 22.7308 17.9513C24.1765 16.3078 26.2349 16.3078 26.6517 16.3078C27.0686 16.3078 29.2123 16.3078 30.5188 17.7581C32.2092 19.6347 31.8739 22.6415 31.8739 22.6415L24.2942 22.5618ZM28.9233 20.703C28.9028 20.3705 28.8362 20.0641 28.7235 19.7838C28.6108 19.5035 28.4555 19.2607 28.2574 19.0553C28.0593 18.85 27.822 18.6886 27.5454 18.5713C27.2688 18.454 26.9597 18.3953 26.6182 18.3953C26.3109 18.3953 26.0257 18.4572 25.7628 18.5811C25.4998 18.7049 25.2693 18.8728 25.0713 19.0847C24.8732 19.2965 24.7144 19.541 24.5949 19.818C24.4753 20.0951 24.4053 20.3901 24.3849 20.703H28.9233Z" fill="white"/>
</g>
<defs>
<clipPath id="clip0_19_830">
<rect width="40" height="40" fill="white"/>
</clipPath>
</defs>
</svg>
